<svg width="284" height="284" viewBox="0 0 284 284" fill="none" xmlns="http://www.w3.org/2000/svg">
<mask id="mask0_1023_204" style="mask-type:luminance" maskUnits="userSpaceOnUse" x="0" y="0" width="284" height="284">
<path d="M0 -0.00082767H283.333V283.199H0V-0.00082767Z" fill="white"/>
</mask>
<g mask="url(#mask0_1023_204)">
<path d="M167.029 155.999L167.016 155.994C112.851 249.81 5.86253 193.135 38.8203 73.3473C37.9068 74.7233 37.0188 76.1273 36.1536 77.5513C32.6495 83.8673 29.55 90.1126 26.8303 96.286C4.65419 152.254 26.2412 217.502 79.9328 248.502C138.965 282.581 214.445 262.359 248.527 203.326L248.568 203.257L248.593 203.21L248.703 203.022C250.221 200.374 251.633 197.695 252.936 194.985C253.008 194.209 253.052 193.458 253.068 192.725C258.96 172.387 250.507 149.904 231.348 138.842C208.839 125.849 180.067 133.534 167.029 155.999Z" fill="#0AA44D"/>
<path d="M116.492 156.412L116.503 156.403C62.3401 62.5879 164.915 -1.73075 252.179 86.7093C251.443 85.2279 250.673 83.7573 249.872 82.2946C246.156 76.1053 242.293 70.2973 238.307 64.8559C200.925 17.6626 133.624 3.73592 79.9328 34.7346C20.9016 68.8146 0.67759 144.296 34.7584 203.326L34.7995 203.402L34.8251 203.445L34.9355 203.632C36.4688 206.272 38.0855 208.833 39.7792 211.314C40.4156 211.765 41.0459 212.18 41.6688 212.562C56.3364 227.829 80.0355 231.752 99.1932 220.692C121.701 207.697 129.432 178.936 116.492 156.412Z" fill="#F9CF10"/>
<path d="M141.407 112.44L141.409 112.457C249.737 112.457 254.149 233.444 133.929 264.8C135.579 264.903 137.239 264.97 138.907 265.008C146.127 264.884 153.084 264.444 159.792 263.712C219.351 254.936 265.061 203.615 265.061 141.616C265.061 73.4558 209.808 18.1971 141.643 18.1971H141.559H141.508H141.291C138.237 18.2051 135.212 18.3238 132.214 18.5518C131.506 18.8771 130.832 19.2158 130.192 19.5651C109.633 24.6345 94.388 43.1958 94.388 65.3198C94.388 91.3078 115.429 112.384 141.407 112.44Z" fill="#30347D"/>
</g>
<mask id="mask1_1023_204" style="mask-type:luminance" maskUnits="userSpaceOnUse" x="18" y="73" width="101" height="155">
<path d="M18.2036 227.014H118.286V73.3443H18.2036V227.014Z" fill="white"/>
</mask>
<g mask="url(#mask1_1023_204)">
<path d="M75.6787 227.012C63.0339 227.012 50.6552 221.916 41.6688 212.562C41.0459 212.18 40.4156 211.765 39.7792 211.314C38.0855 208.833 36.4688 206.272 34.9355 203.631L34.8251 203.445L34.7995 203.401L34.7584 203.328C33.1636 200.565 31.6864 197.768 30.3292 194.938L30.3172 194.912C30.2047 194.68 30.0932 194.445 29.9833 194.212C31.436 197.286 33.0281 200.329 34.7584 203.326L34.7995 203.401L34.8251 203.445L34.9355 203.631C36.4688 206.272 38.0855 208.833 39.7792 211.314C40.4156 211.765 41.0459 212.18 41.6688 212.562C50.6552 221.916 63.0339 227.012 75.6787 227.012C83.6729 227.012 91.7729 224.976 99.1932 220.692C99.2115 220.683 99.2297 220.672 99.2473 220.661C99.2292 220.672 99.2115 220.683 99.1932 220.692C91.7729 224.976 83.6729 227.012 75.6787 227.012Z" fill="#46AF3C"/>
<path d="M75.6787 227.012C63.0339 227.012 50.6552 221.916 41.6688 212.562C41.0459 212.18 40.4156 211.765 39.7792 211.314C38.0855 208.833 36.4688 206.272 34.9355 203.631L34.8251 203.445L34.7995 203.401L34.7584 203.326C33.0281 200.329 31.436 197.286 29.9833 194.212C29.7317 193.676 29.4855 193.137 29.2412 192.598C29.1364 192.368 29.0281 192.138 28.924 191.905C28.7943 191.616 28.6735 191.325 28.5464 191.036C21.8489 175.672 18.3011 159.037 18.2052 142.208L18.2036 142.022C18.2036 141.861 18.2063 141.698 18.2063 141.537C18.2312 125.897 21.2303 110.421 26.976 95.9664C29.6594 89.897 32.711 83.757 36.1536 77.549C37.0188 76.1277 37.9068 74.7237 38.8203 73.345C17.2844 151.624 55.5022 202.942 99.6922 202.942C105.822 202.942 112.07 201.954 118.286 199.913C114.354 208.307 107.914 215.626 99.2974 220.631C99.2948 220.633 99.2927 220.635 99.2902 220.636C99.2755 220.645 99.2615 220.653 99.2474 220.661C99.2298 220.672 99.2115 220.683 99.1932 220.692C91.773 224.976 83.673 227.012 75.6787 227.012Z" fill="#76B82F"/>
</g>
<mask id="mask2_1023_204" style="mask-type:luminance" maskUnits="userSpaceOnUse" x="133" y="132" width="122" height="133">
<path d="M133.929 264.986H254.917V132.506H133.929V264.986Z" fill="white"/>
</mask>
<g mask="url(#mask2_1023_204)">
<path d="M134.001 264.781C133.977 264.78 133.953 264.779 133.929 264.777C200.672 247.373 228.999 202.341 222.459 165.721C229.005 202.332 200.705 247.358 134.001 264.781Z" fill="#1E6638"/>
<path d="M138.907 264.986C137.263 264.949 135.628 264.881 134.001 264.781C200.705 247.358 229.005 202.332 222.459 165.721C220.233 153.26 213.969 141.77 203.807 132.677C204.991 132.574 206.18 132.517 207.372 132.506H208.309C216.149 132.584 224.075 134.622 231.348 138.822C250.507 149.884 258.96 172.363 253.068 192.704C253.052 193.436 253.008 194.188 252.936 194.963C251.633 197.67 250.221 200.349 248.703 203L248.593 203.188L248.568 203.234L248.527 203.305C246.933 206.067 245.248 208.741 243.481 211.332L243.461 211.36C242.977 212.062 242.489 212.755 241.997 213.445C241.847 213.651 241.703 213.86 241.552 214.07C241.369 214.322 241.18 214.57 240.996 214.82C231.032 228.314 218.395 239.706 203.855 248.209L203.715 248.296C203.572 248.375 203.424 248.46 203.284 248.537C189.729 256.338 174.831 261.473 159.439 263.726C152.841 264.437 145.999 264.865 138.907 264.986Z" fill="#245345"/>
</g>
<mask id="mask3_1023_204" style="mask-type:luminance" maskUnits="userSpaceOnUse" x="94" y="18" width="159" height="75">
<path d="M94.388 92.2188H252.179V18.1766H94.388V92.2188Z" fill="white"/>
</mask>
<g mask="url(#mask3_1023_204)">
<path d="M238.66 65.3203C238.597 65.2403 238.539 65.1656 238.476 65.087C238.428 65.0216 238.381 64.9563 238.333 64.8923C238.393 64.9683 238.455 65.0443 238.515 65.1203C238.563 65.187 238.611 65.2536 238.66 65.3203ZM210.435 39.115C208.341 37.7123 206.207 36.3763 204.039 35.1083C201.372 33.543 198.645 32.0776 195.856 30.711C198.231 31.8696 200.571 33.1043 202.872 34.4163L203.011 34.4923C203.155 34.5763 203.295 34.6603 203.441 34.7416C205.824 36.123 208.156 37.583 210.435 39.115ZM161.063 19.7163C158.612 19.3296 156.131 19.0136 153.636 18.7723C149.619 18.3763 145.581 18.1776 141.528 18.1776C141.513 18.1776 141.497 18.1776 141.484 18.1776H141.508H141.559H141.643C144.831 18.1776 147.988 18.299 151.115 18.5363L151.156 18.539C152 18.603 152.845 18.6803 153.687 18.763C153.943 18.7883 154.196 18.8096 154.455 18.8376C154.763 18.8683 155.069 18.907 155.377 18.9416C157.279 19.1563 159.175 19.415 161.063 19.7163Z" fill="#FAD73B"/>
<path d="M94.388 65.3086C94.388 65.3046 94.388 65.3006 94.388 65.2979C94.388 43.1726 109.633 24.6126 130.192 19.5459C130.832 19.1939 131.506 18.8566 132.214 18.5326C135.211 18.3059 138.237 18.1833 141.291 18.1779L141.484 18.1766C141.497 18.1766 141.513 18.1766 141.528 18.1766C145.581 18.1766 149.619 18.3753 153.636 18.7713C149.687 18.3913 145.691 18.1966 141.643 18.1966H141.559H141.508H141.291C138.237 18.2046 135.212 18.3233 132.214 18.5513C131.506 18.8766 130.832 19.2153 130.192 19.5646C109.635 24.6339 94.3917 43.1886 94.388 65.3086ZM238.476 65.0859C228.981 53.0899 217.299 42.8926 204.039 35.1073C206.207 36.3753 208.341 37.7113 210.435 39.1139C221.009 46.2286 230.423 54.9339 238.333 64.8913C238.381 64.9553 238.428 65.0206 238.476 65.0859Z" fill="#F8CF0F"/>
<path d="M102.834 92.2188C97.5136 84.5934 94.3901 75.3147 94.388 65.3094C94.3917 43.1894 109.635 24.6347 130.192 19.5654C130.832 19.2161 131.506 18.8774 132.214 18.5521C135.212 18.3241 138.237 18.2054 141.291 18.1974H141.508H141.559H141.643C145.691 18.1974 149.687 18.3921 153.636 18.7721C156.131 19.0134 158.612 19.3294 161.063 19.7161C173.117 21.6427 184.855 25.3441 195.856 30.7107C198.645 32.0774 201.372 33.5427 204.039 35.1081C217.299 42.8934 228.981 53.0907 238.476 65.0867C238.539 65.1654 238.597 65.2401 238.66 65.3201C242.52 70.6201 246.263 76.2654 249.872 82.2734C250.673 83.7361 251.441 85.2054 252.179 86.6868C222.975 57.0894 192.059 44.6014 165.875 44.6014C133.841 44.6014 108.891 63.2961 102.834 92.2188Z" fill="#C8A33B"/>
</g>
</svg>
